<svg width="19" height="22" viewBox="0 0 19 22" fill="none" xmlns="http://www.w3.org/2000/svg">
<path d="M5.74318 9.33633V5.03003C5.74591 4.11414 6.11595 3.23643 6.7726 2.58848C7.42925 1.94053 8.31926 1.57488 9.24835 1.57129C10.178 1.57398 11.0688 1.93927 11.7262 2.58732C12.3836 3.23536 12.7542 4.11355 12.7569 5.03003V9.33633M17.481 16.9686L16.4243 9.25466C16.3243 8.61861 15.9937 8.03985 15.4941 7.62552C14.9944 7.21119 14.3594 6.9893 13.7065 7.00102H4.79349C4.14065 6.9893 3.50562 7.21119 3.00595 7.62552C2.50628 8.03985 2.17585 8.61861 2.07576 9.25466L1.01903 16.9686C0.969544 17.4112 1.01686 17.8592 1.15772 18.2824C1.29857 18.7055 1.52973 19.0941 1.83565 19.4218C2.14157 19.7495 2.51516 20.0087 2.93125 20.1821C3.34735 20.3556 3.79631 20.4392 4.24792 20.4273H14.2626C14.7133 20.4377 15.1611 20.3531 15.5759 20.179C15.9908 20.0049 16.363 19.7453 16.6678 19.4178C16.9726 19.0902 17.2028 18.7023 17.3431 18.2799C17.4833 17.8575 17.5303 17.4104 17.481 16.9686Z" stroke="#F8F8F8" stroke-width="1.17857" stroke-linecap="round" stroke-linejoin="round"/>
</svg>
