<svg width="32" height="33" viewBox="0 0 32 33" fill="none" xmlns="http://www.w3.org/2000/svg">
<rect y="0.258301" width="32" height="32" rx="15" fill="#F8F8F8"/>
<path d="M15.5334 15.9998H5.6786M8.2086 18.6562L6.25986 17.1775C6.07882 17.0395 5.93204 16.8615 5.83102 16.6575C5.73001 16.4535 5.67749 16.229 5.67749 16.0013C5.67749 15.7737 5.73001 15.5491 5.83102 15.3451C5.93204 15.1411 6.07882 14.9632 6.25986 14.8252L8.2086 13.3434M21.9547 9.50926V22.4904M11.9522 20.12C13.7594 26.8455 18.8585 26.3124 18.8585 26.3124C18.8585 26.3124 23.9787 26.8455 25.7647 20.12C26.4665 17.418 26.4665 14.5815 25.7647 11.8796C23.9727 5.15408 18.8585 5.68723 18.8585 5.68723C18.8585 5.68723 13.7383 5.15408 11.9522 11.8796" stroke="#E95322" stroke-width="2" stroke-linecap="round" stroke-linejoin="round"/>
</svg>
