<svg width="21" height="29" viewBox="0 0 21 29" fill="none" xmlns="http://www.w3.org/2000/svg">
<path d="M10.4692 9.94556C12.8981 9.94556 14.867 7.97659 14.867 5.54773C14.867 3.11888 12.8981 1.1499 10.4692 1.1499C8.04035 1.1499 6.07137 3.11888 6.07137 5.54773C6.07137 7.97659 8.04035 9.94556 10.4692 9.94556Z" stroke="#E95322" stroke-width="2" stroke-linecap="round" stroke-linejoin="round"/>
<path d="M18.5651 22.7911C16.4541 27.5329 10.4419 27.1421 10.4419 27.1421C10.4419 27.1421 4.42564 27.5173 2.31859 22.7911C1.91079 21.8819 1.69995 20.8967 1.69995 19.9003C1.69995 18.9038 1.91079 17.9187 2.31859 17.0095C4.42564 12.2677 10.4419 12.6585 10.4419 12.6585C10.4419 12.6585 16.4541 12.2833 18.5651 17.0095C18.9729 17.9187 19.1837 18.9038 19.1837 19.9003C19.1837 20.8967 18.9729 21.8819 18.5651 22.7911Z" stroke="#E95322" stroke-width="2" stroke-linecap="round" stroke-linejoin="round"/>
</svg>
